# xmcd
#
# Track frame offsets:
# 150
# 17047
# 34255
# 56210
# 82892
#
# Disc length: 1330 seconds
#
#
# Revision: 0
# Processed by: cddbd v1.5.1PL0 Copyright (c) Steve Scherf et al.
# Submitted via: FreeRIP 2.51 
#
DISCID=37053005
DTITLE=Jean Michel Jarre - Oxygene 8
DYEAR=1997
DGENRE=Dance
TTITLE0=Oxygene 8 (Dado's FM Remix)
TTITLE1=Oxygene 8 (Hani Oxygene 101 Radio)
TTITLE2=Oxygene 8 (Takkyu Ishino Edit)
TTITLE3=Oxygene 8 (Dado's Ethnic Remix)
TTITLE4=Oxygene 8 (Hani's 303 Reprise)
EXTD=
EXTT0=
EXTT1=
EXTT2=
EXTT3=
EXTT4=
PLAYORDER=
